<?xml version="1.0" standalone="no"?>
<!DOCTYPE svg PUBLIC "-//W3C//DTD SVG 20010904//EN"
 "http://www.w3.org/TR/2001/REC-SVG-20010904/DTD/svg10.dtd">
<svg version="1.0" xmlns="http://www.w3.org/2000/svg"
 width="300.000000pt" height="300.000000pt" viewBox="0 0 300.000000 300.000000"
 preserveAspectRatio="xMidYMid meet">
<metadata>
Created by potrace 1.10, written by Peter Selinger 2001-2011
</metadata>
<g transform="translate(0.000000,300.000000) scale(0.100000,-0.100000)"
fill="#000000" stroke="none">
<path d="M2045 2246 c-107 -34 -143 -75 -175 -201 -11 -44 -20 -86 -20 -92 0
-10 27 -13 103 -13 l102 0 19 35 c36 66 82 89 115 56 24 -24 26 -48 10 -105
-17 -61 -49 -86 -108 -86 l-50 0 -14 -62 -14 -63 52 -5 c68 -7 85 -22 85 -77
0 -88 -43 -143 -110 -143 -46 0 -60 15 -60 62 l0 39 -117 -3 -118 -3 -3 -70
c-3 -82 15 -119 75 -159 65 -43 196 -58 318 -35 138 25 216 107 245 257 17 82
9 156 -19 185 l-21 23 29 22 c16 12 44 51 62 87 27 55 33 79 37 160 7 141 -12
170 -126 194 -70 15 -247 13 -297 -3z m105 -18 c0 -6 26 -39 58 -74 31 -34 76
-89 99 -122 33 -48 39 -62 26 -66 -24 -10 -33 -7 -33 11 0 9 -12 31 -26 50
-19 25 -29 31 -38 24 -20 -17 -38 7 -23 30 10 16 4 27 -47 78 -55 55 -64 81
-30 81 8 0 14 -5 14 -12z m120 6 c0 -4 -7 -12 -15 -18 -12 -9 -11 -14 5 -35
l20 -23 35 31 c34 30 65 40 65 23 0 -8 -95 -97 -104 -97 -8 0 -86 103 -86 114
0 6 17 11 40 11 22 0 40 -3 40 -6z m-185 -14 c3 -5 1 -10 -4 -10 -6 0 -11 5
-11 10 0 6 2 10 4 10 3 0 8 -4 11 -10z m212 -17 c-9 -9 -20 -13 -24 -9 -4 4 1
14 11 22 25 18 35 8 13 -13z m-164 -46 c31 -22 57 -43 57 -48 0 -21 -14 -39
-32 -39 -10 0 -32 -7 -48 -15 l-30 -15 6 28 c5 25 0 33 -34 60 -22 18 -43 32
-46 32 -4 0 -22 -12 -41 -27 l-34 -27 30 -30 c24 -25 33 -28 47 -20 29 19 21
39 -15 36 -39 -3 -43 14 -8 30 19 9 29 8 50 -6 33 -22 32 -46 -4 -80 -32 -31
-46 -28 -102 19 l-26 21 24 47 c13 26 30 47 37 47 8 0 17 7 20 15 7 20 26 11
101 -50 58 -48 65 -51 65 -34 0 13 -14 25 -82 71 -26 17 -45 35 -42 40 6 10
32 -3 107 -55z m293 32 c4 -6 -12 -27 -36 -48 -37 -32 -42 -41 -36 -64 3 -14
24 -41 46 -58 47 -38 50 -49 14 -49 -28 0 -71 41 -100 95 l-18 33 55 51 c58
54 64 57 75 40z m24 -69 c0 -11 -7 -20 -15 -20 -19 0 -19 -9 1 -31 26 -29 7
-42 -27 -17 -35 26 -37 50 -6 71 30 22 47 21 47 -3z m-438 -45 c0 -5 -5 -11
-11 -13 -6 -2 -11 4 -11 13 0 9 5 15 11 13 6 -2 11 -8 11 -13z m-72 -60 c27
-29 80 -34 100 -10 20 24 31 18 18 -10 -11 -24 -16 -25 -90 -25 -69 0 -101 11
-65 23 9 3 9 7 0 19 -12 14 -8 28 7 28 4 0 17 -11 30 -25z m330 -19 c0 -17
-25 -38 -33 -29 -4 3 -7 19 -7 35 0 26 2 28 20 18 11 -6 20 -17 20 -24z m150
-54 c0 -33 -81 -142 -105 -142 -15 0 -1 30 25 55 17 16 30 32 30 37 0 13 -20
9 -37 -7 -9 -10 -23 -13 -37 -9 -21 7 -21 6 -2 -15 30 -33 9 -38 -24 -6 -35
33 -40 60 -10 52 11 -3 36 -1 57 3 23 6 44 5 56 -2 15 -8 18 -7 15 4 -4 9 -25
13 -82 11 -70 -2 -86 3 -69 20 9 10 183 9 183 -1z m-185 -81 c3 -11 21 -33 40
-50 19 -17 35 -35 35 -40 0 -5 -20 -39 -45 -75 l-45 -66 70 0 c66 0 70 -1 70
-22 0 -36 -11 -45 -63 -52 -34 -5 -53 -4 -64 6 -14 11 -9 14 38 18 79 7 62 25
-21 21 -66 -3 -70 -1 -70 18 0 12 20 46 45 77 25 30 45 61 45 68 0 13 -54 66
-68 66 -5 0 -21 -13 -36 -29 l-28 -29 26 -17 c14 -9 30 -14 36 -10 15 9 1 28
-16 21 -20 -8 -17 21 3 32 13 8 21 4 35 -14 19 -23 18 -24 -8 -64 -15 -22 -32
-40 -38 -40 -7 0 -6 4 2 9 15 9 7 17 -41 41 -31 15 -45 53 -28 74 6 7 25 16
41 19 16 4 37 18 46 32 20 30 31 32 39 6z m-155 -80 c0 -37 -14 -61 -27 -48
-8 9 8 87 18 87 5 0 9 -18 9 -39z m284 -94 l5 -37 -50 0 -50 0 16 30 c16 30
42 43 32 15 -4 -8 -2 -17 4 -20 18 -11 21 26 4 45 -9 10 -14 24 -10 30 12 20
44 -21 49 -63z m-160 -110 c-2 -7 7 -24 21 -37 21 -19 28 -22 34 -11 15 24 32
3 19 -24 -14 -32 -21 -31 -69 7 -36 29 -48 55 -32 71 12 12 33 7 27 -6z m-293
-19 c17 -10 23 -10 26 0 10 26 22 11 16 -20 -5 -26 -2 -35 22 -53 l27 -23 -38
-51 c-21 -28 -44 -51 -51 -51 -12 0 -83 86 -83 100 0 8 18 17 35 18 6 0 9 -5
7 -11 -5 -18 20 -57 37 -57 20 1 55 47 42 55 -5 3 -12 1 -16 -5 -3 -5 -15 -15
-26 -20 -16 -9 -19 -8 -16 8 2 11 11 27 20 36 23 24 22 39 -2 26 -11 -5 -38
-10 -60 -10 -27 0 -43 -5 -49 -16 -15 -28 -32 -6 -32 42 l0 44 60 0 c33 0 70
-6 81 -12z m425 -34 c-10 -37 -54 -104 -70 -104 -7 0 -32 14 -56 31 l-42 31
-29 -28 -29 -28 27 -23 c33 -26 56 -29 73 -8 7 8 21 15 32 15 29 0 8 -22 -41
-45 l-39 -17 -44 33 c-23 19 -44 37 -46 42 -7 15 -23 6 -63 -38 -38 -41 -69
-58 -69 -37 0 4 18 26 40 47 22 21 40 44 40 51 0 17 41 25 58 11 15 -12 16
-10 57 47 14 19 16 18 69 -17 31 -20 58 -37 61 -37 2 0 16 23 30 50 27 54 52
68 41 24z m-519 -91 c9 -16 26 -38 37 -50 11 -13 14 -23 8 -23 -18 0 -79 58
-85 80 -8 30 19 25 40 -7z m354 -4 c-13 -11 -26 -17 -29 -14 -8 8 20 35 37 35
12 -1 11 -5 -8 -21z m33 -24 c-7 -16 -30 -20 -38 -6 -7 11 4 21 25 21 12 0 16
-5 13 -15z m-124 -39 c-14 -6 -25 -5 -33 3 -18 18 11 33 35 18 18 -12 18 -12
-2 -21z m40 -15 c0 -10 -50 -21 -91 -21 -28 0 -40 15 -18 22 23 7 109 6 109
-1z"/>
<path d="M1789 1540 c-20 -13 5 -17 61 -10 30 4 48 8 40 9 -49 7 -90 7 -101 1z"/>
<path d="M915 2228 c-4 -15 -235 -1280 -235 -1290 0 -5 76 -8 169 -8 l170 0
10 52 c6 29 22 114 36 188 14 74 30 159 36 187 l10 53 227 2 226 3 23 120 c12
66 25 130 28 143 l5 22 -225 0 c-261 0 -236 -16 -205 135 11 53 20 99 20 101
0 2 119 4 264 4 243 0 265 1 270 18 2 9 14 69 26 132 11 63 23 123 26 133 5
16 -20 17 -436 17 -344 0 -442 -3 -445 -12z"/>
<path d="M660 850 c0 -20 5 -20 172 -18 155 3 173 5 176 21 3 16 -10 17 -172
17 -170 0 -176 -1 -176 -20z"/>
<path d="M646 764 c-3 -9 -6 -20 -6 -25 0 -6 69 -8 173 -7 170 3 172 3 175 26
l3 22 -169 0 c-146 0 -171 -2 -176 -16z"/>
</g>
</svg>
